<mxfile host="app.diagrams.net" modified="2021-08-24T01:54:56.730Z" agent="5.0 (Macintosh; Intel Mac OS X 10_15_7) AppleWebKit/537.36 (KHTML, like Gecko) Chrome/92.0.4515.131 Safari/537.36" etag="fpDjL50FZ08ArbQgbGMQ" version="14.9.0" type="github">
  <diagram id="imjtD3497KuN3ULHMsH7" name="Page-1">
    <mxGraphModel dx="1302" dy="1129" grid="1" gridSize="10" guides="1" tooltips="1" connect="1" arrows="1" fold="1" page="1" pageScale="1" pageWidth="827" pageHeight="1169" math="0" shadow="0">
      <root>
        <mxCell id="0" />
        <mxCell id="1" parent="0" />
        <mxCell id="NmiQ4jP7cXwFQjp-WQcI-1" value="" style="rounded=0;whiteSpace=wrap;html=1;dashed=1;strokeWidth=0.5;" vertex="1" parent="1">
          <mxGeometry x="290" y="50" width="870" height="590" as="geometry" />
        </mxCell>
        <mxCell id="NmiQ4jP7cXwFQjp-WQcI-3" value="" style="rounded=0;whiteSpace=wrap;html=1;align=left;strokeColor=#004C99;strokeWidth=0.5;" vertex="1" parent="1">
          <mxGeometry x="370" y="90" width="780" height="440" as="geometry" />
        </mxCell>
        <mxCell id="NmiQ4jP7cXwFQjp-WQcI-5" value="&lt;font style=&quot;font-size: 10px&quot;&gt;HUAWEI Cloud&lt;/font&gt;" style="rounded=1;whiteSpace=wrap;html=1;strokeColor=#82b366;strokeWidth=0.5;align=center;fillColor=#d5e8d4;fontSize=10;" vertex="1" parent="1">
          <mxGeometry x="293" y="53" width="107" height="27" as="geometry" />
        </mxCell>
        <mxCell id="NmiQ4jP7cXwFQjp-WQcI-6" value="Smart OTD Account" style="rounded=1;whiteSpace=wrap;html=1;strokeColor=#82b366;strokeWidth=0.5;align=center;fillColor=#d5e8d4;" vertex="1" parent="1">
          <mxGeometry x="377" y="94" width="123" height="26" as="geometry" />
        </mxCell>
      </root>
    </mxGraphModel>
  </diagram>
</mxfile>
